<?xml version="1.0" encoding="iso-8859-1"?>
<!-- Generator: Adobe Illustrator 18.0.0, SVG Export Plug-In . SVG Version: 6.00 Build 0)  -->
<!DOCTYPE svg PUBLIC "-//W3C//DTD SVG 1.1//EN" "http://www.w3.org/Graphics/SVG/1.1/DTD/svg11.dtd">
<svg version="1.1" id="Capa_1" xmlns="http://www.w3.org/2000/svg" xmlns:xlink="http://www.w3.org/1999/xlink" x="0px" y="0px"
	 viewBox="0 0 271.043 271.043" style="enable-background:new 0 0 271.043 271.043;" xml:space="preserve">
<g>
	<path d="M82.906,96.485l86.8-45.405c3.461-1.811,7.345-2.768,11.233-2.768c9.068,0,17.311,4.988,21.514,13.02l18.39,35.153h13.675
		c12.358,0,23.103,7.045,28.427,17.329c7.544-4.63,10.328-14.367,6.164-22.328l-28.855-55.161
		c-3.033-5.799-8.946-9.117-15.066-9.117c-2.654,0-5.346,0.623-7.86,1.938l-0.451,0.235l-3.782-7.232
		c-3.033-5.799-8.946-9.116-15.065-9.116c-2.654-0.001-5.346,0.623-7.86,1.939L34.33,96.489c0.051,0,0.101-0.004,0.153-0.004H82.906
		z"/>
	<path d="M180.939,63.312c-1.496,0-2.937,0.355-4.279,1.059l-61.392,32.114h88.646l-14.752-28.2
		C187.557,65.217,184.405,63.312,180.939,63.312z"/>
	<path d="M252.013,136.633h-0.509v-8.161c0-9.383-7.605-16.987-16.987-16.987H34.483c-9.382,0-16.987,7.604-16.987,16.987v8.161
		h-0.509C7.606,136.633,0,144.239,0,153.621v62.252c0,9.383,7.606,16.988,16.987,16.988h0.509v8.161
		c0,9.383,7.606,16.987,16.987,16.987h200.033c9.382,0,16.987-7.604,16.987-16.987v-8.161h0.509c9.382,0,16.987-7.605,16.987-16.988
		v-62.252C269,144.239,261.395,136.633,252.013,136.633z M223.915,211.235c0,13.379-10.885,24.264-24.264,24.264H69.349
		c-13.379,0-24.264-10.885-24.264-24.264V158.26c0-13.379,10.885-24.264,24.264-24.264h130.303
		c13.379,0,24.264,10.885,24.264,24.264V211.235z"/>
	<path d="M199.651,148.996H69.349c-5.108,0-9.264,4.155-9.264,9.264v52.975c0,5.108,4.155,9.264,9.264,9.264h130.303
		c5.108,0,9.264-4.155,9.264-9.264V158.26C208.915,153.152,204.76,148.996,199.651,148.996z M82.25,162.997h42.5
		c4.143,0,7.5,3.357,7.5,7.5c0,4.143-3.357,7.5-7.5,7.5h-42.5c-4.143,0-7.5-3.357-7.5-7.5
		C74.75,166.355,78.107,162.997,82.25,162.997z M166.25,206.497h-84c-4.143,0-7.5-3.357-7.5-7.5c0-4.143,3.357-7.5,7.5-7.5h84
		c4.143,0,7.5,3.357,7.5,7.5C173.75,203.14,170.393,206.497,166.25,206.497z"/>
</g>
<g>
</g>
<g>
</g>
<g>
</g>
<g>
</g>
<g>
</g>
<g>
</g>
<g>
</g>
<g>
</g>
<g>
</g>
<g>
</g>
<g>
</g>
<g>
</g>
<g>
</g>
<g>
</g>
<g>
</g>
</svg>
